<?xml version="1.0" standalone="no"?>
<!DOCTYPE svg PUBLIC "-//W3C//DTD SVG 20010904//EN"
 "http://www.w3.org/TR/2001/REC-SVG-20010904/DTD/svg10.dtd">
<svg version="1.0" xmlns="http://www.w3.org/2000/svg"
 width="1024.000000pt" height="1024.000000pt" viewBox="0 0 1024.000000 1024.000000"
 preserveAspectRatio="xMidYMid meet">
<metadata>
Created by potrace 1.11, written by Peter Selinger 2001-2013
</metadata>
<g transform="translate(0.000000,1024.000000) scale(0.100000,-0.100000)"
fill="#000000" stroke="none">
<path d="M0 5120 l0 -5120 5120 0 5120 0 0 5120 0 5120 -5120 0 -5120 0 0
-5120z m9660 0 l0 -4560 -4550 0 -4550 0 0 4560 0 4560 4550 0 4550 0 0 -4560z"/>
<path d="M620 5120 l0 -4500 4490 0 4490 0 0 4500 0 4500 -4490 0 -4490 0 0
-4500z m6118 1215 c3 -2212 0 -2455 -33 -2724 -46 -367 -127 -657 -252 -903
-75 -149 -160 -266 -278 -383 -310 -309 -737 -483 -1310 -535 -309 -28 -763 0
-1080 66 -405 86 -855 331 -1137 621 l-48 48 365 398 366 397 72 -55 c207
-159 544 -273 900 -306 157 -14 445 -6 539 15 161 37 321 123 401 216 75 88
131 226 164 404 16 84 18 286 20 2514 l4 2422 652 -2 652 -3 3 -2190z m-1598
1319 c0 -465 -3 -844 -7 -842 -5 2 -387 192 -851 423 l-843 420 843 422 c464
232 846 422 851 422 4 1 7 -380 7 -845z"/>
</g>
</svg>
